PathFileType  4	(X/Y/Z) C:\Users\HPL 1\Documents/Temp/Sub278498/Files_W_HJCs/
DataRate	CameraRate	NumFrames	NumMarkers	Units	OrigDataRate	OrigDataStartFrame	OrigNumFrames
50.0	50.0	6	42	mm	50.0	143	571
Frame#	Time  	r_knee			r_shank(antsup)			r_ankle			r_calc			r_5meta			r_toe			L_knee			L_shank(ant_sup)			L_ankle			L_calc			L_5meta			L_toe			r_mknee			r_mankle			L_mknee			L_mankle			r_sh2			r_sh3			r_sh4			L_sh2			L_sh3			r_thigh1			r_thigh2			r_thigh3			r_thigh4			r_thigh5			L_thigh1			L_thigh2			L_thigh3			L_thigh4			r.ASIS			r.PSIS			L.ASIS			L.PSIS			C7			R_Shoulder			L_Shoulder			Sternum			R_HJC			L_HJC			R_HJC_reg			L_HJC_reg			
		X1	Y1	Z1	X2	Y2	Z2	X3	Y3	Z3	X4	Y4	Z4	X5	Y5	Z5	X6	Y6	Z6	X7	Y7	Z7	X8	Y8	Z8	X9	Y9	Z9	X10	Y10	Z10	X11	Y11	Z11	X12	Y12	Z12	X13	Y13	Z13	X14	Y14	Z14	X15	Y15	Z15	X16	Y16	Z16	X17	Y17	Z17	X18	Y18	Z18	X19	Y19	Z19	X20	Y20	Z20	X21	Y21	Z21	X22	Y22	Z22	X23	Y23	Z23	X24	Y24	Z24	X25	Y25	Z25	X26	Y26	Z26	X27	Y27	Z27	X28	Y28	Z28	X29	Y29	Z29	X30	Y30	Z30	X31	Y31	Z31	X32	Y32	Z32	X33	Y33	Z33	X34	Y34	Z34	X35	Y35	Z35	X36	Y36	Z36	X37	Y37	Z37	X38	Y38	Z38	X39	Y39	Z39	X40	Y40	Z40	X41	Y41	Z41	X42	Y42	Z42	

143	2.84000	1022.14972	887.25122	-367.24326	1087.90247	851.13245	-316.35065	1272.46057	607.98584	-79.71674	1235.93372	505.28491	-65.82042	1400.49658	638.78784	-43.39252	1420.92444	644.24219	-122.09780	759.98993	564.47015	-859.74969	792.29846	446.23605	-846.38440	698.94061	110.76462	-807.57831	621.98206	73.36987	-753.92407	814.31348	41.57714	-849.50006	861.88562	68.77104	-793.66803	1059.07751	799.62903	-456.06311	1294.05920	559.71893	-159.79727	788.04376	566.96045	-736.38727	729.17889	121.84528	-717.64349	1154.36853	784.21356	-242.49220	1026.68005	814.64807	-292.14227	1083.94653	747.16357	-215.75720	704.80701	465.42633	-868.23505	690.95789	344.52493	-854.22418	856.66150	1097.60889	-553.79291	933.09692	1037.73389	-493.76248	919.33966	1000.93671	-451.81409	774.11505	1037.99854	-501.69626	859.89264	970.82446	-451.52731	814.20270	836.03595	-912.56854	831.19775	700.14832	-894.98352	698.98096	821.54645	-914.61133	719.86987	691.35284	-884.78387	820.19128	1171.37073	-664.52789	628.10315	1147.21326	-737.33356	808.74335	1091.67493	-907.91248	627.38440	1125.89392	-814.72705	704.80060	1627.65625	-831.14252	742.39581	1604.20166	-667.76697	752.68347	1576.45435	-1010.90375	834.56958	1541.74512	-826.91760	768.01663	1075.59889	-639.56246	755.20818	1003.33243	-864.24383	762.32122	1070.32647	-673.55401	760.80640	1025.39430	-836.66685
144	2.86000	1023.53186	892.45471	-366.25113	1089.60486	857.42743	-314.83179	1274.58276	618.31763	-74.20592	1238.22754	515.95313	-58.42800	1402.96716	650.14014	-38.77385	1423.97205	653.98669	-117.50027	759.12195	564.60083	-859.77374	791.81989	446.37592	-846.35370	698.96564	110.84269	-807.47601	622.04053	73.44923	-753.88232	814.31268	41.66655	-849.49207	861.92798	68.80257	-793.64276	1059.96985	803.36145	-452.99533	1296.16785	568.72083	-153.58009	787.71106	567.07721	-736.44183	729.23401	121.84097	-717.62866	1155.95056	792.47803	-239.42697	1028.47583	821.44189	-289.05960	1085.90088	755.57538	-211.95963	704.22705	465.52090	-868.18549	690.43573	344.54395	-853.91309	857.75812	1099.88843	-554.72412	934.11023	1040.78381	-494.00119	920.39142	1004.52100	-451.50760	775.60443	1041.24036	-501.00781	861.03784	974.32568	-450.98438	812.90570	835.83008	-913.39948	829.76880	699.93799	-895.62769	697.16815	822.11353	-913.54260	718.42926	691.40399	-884.83624	821.62744	1172.04541	-665.67407	628.64136	1148.32849	-737.68616	807.72577	1091.45105	-908.96393	627.35498	1126.76538	-814.92010	706.31854	1628.33545	-830.66425	744.74689	1604.42444	-667.44824	752.85364	1577.07434	-1010.71997	835.62421	1541.92554	-827.20038	768.88282	1076.50309	-640.33854	754.32637	1003.49383	-864.67304	762.96026	1071.10794	-673.99611	760.24306	1025.56042	-837.13650
145	2.88000	1024.59387	896.21960	-365.25574	1090.73816	861.94781	-313.49564	1275.75195	625.83514	-70.09444	1239.03333	523.83704	-52.14914	1404.04358	658.09723	-35.10552	1424.88208	660.68750	-113.98373	758.90308	564.51044	-859.70941	791.70459	446.48538	-846.32428	699.10889	111.02978	-807.33356	622.11078	73.53360	-753.77667	814.37128	41.72257	-849.46460	861.99591	68.74876	-793.58472	1060.63220	805.88507	-450.73117	1297.15991	575.10986	-148.77948	788.04523	567.12598	-736.55377	729.33954	121.89847	-717.56995	1157.12610	797.88220	-237.54137	1029.66040	826.61273	-286.90973	1087.00183	761.60651	-209.30934	703.95044	465.52695	-868.00427	690.18976	344.44824	-853.79956	858.16357	1101.39246	-555.41852	934.90045	1043.02393	-494.11493	921.01776	1007.10297	-451.26123	776.24707	1043.17310	-501.30612	861.69238	976.72070	-450.71890	812.34973	835.72424	-913.87860	829.27850	699.76501	-895.97369	696.52881	821.98395	-913.54932	717.65845	691.18903	-884.80096	822.44019	1172.27844	-666.51013	629.34338	1149.17346	-737.93237	807.34924	1091.27368	-909.72858	627.54681	1127.34094	-814.99976	706.82660	1629.51709	-830.50500	746.94611	1604.61011	-667.35785	753.35840	1577.53137	-1010.69720	836.81091	1542.04175	-827.50629	769.52413	1076.97304	-640.88288	753.87824	1003.58417	-865.02009	763.48512	1071.82304	-674.24752	759.68467	1025.63867	-837.27538
146	2.90000	1025.04443	898.64404	-364.61411	1091.28577	864.56671	-312.69272	1275.57605	630.19513	-67.09626	1238.46558	528.48981	-48.20764	1403.67969	662.64282	-32.24993	1424.74158	664.49054	-111.17944	758.93341	564.43079	-859.68188	791.67377	446.52539	-846.30829	699.21198	111.06569	-807.26056	622.13397	73.62705	-753.73792	814.36237	41.68453	-849.43256	862.07361	68.68871	-793.56848	1061.07068	807.52185	-449.38950	1296.67065	578.62445	-145.07919	788.39478	567.18091	-736.71979	729.45813	121.84029	-717.48047	1157.63867	801.15094	-236.12970	1030.07703	829.78131	-285.39023	1087.33691	765.36194	-207.42160	703.97662	465.52652	-867.94330	690.24231	344.52274	-853.74335	858.67047	1102.35095	-555.84515	935.14819	1044.29248	-494.16406	921.40967	1008.69739	-451.09512	776.58795	1044.27405	-501.43820	862.08588	978.32660	-450.47345	812.16522	835.46082	-914.27655	829.15784	699.50598	-896.05450	696.36523	821.73938	-913.41431	717.44580	691.05774	-884.80084	823.40155	1172.42175	-666.85638	629.97235	1149.74353	-738.04077	807.40430	1091.07019	-910.15277	627.91272	1127.79517	-815.19165	708.16827	1629.74231	-830.46045	748.99475	1604.71741	-667.34583	754.12701	1577.75244	-1010.73053	837.99402	1542.01978	-827.84509	770.12553	1077.25511	-641.16712	753.82250	1003.61975	-865.17662	764.08947	1072.03417	-674.33903	759.73493	1025.63017	-837.45415
147	2.92000	1024.93323	899.36719	-364.23593	1091.14966	865.21350	-312.14404	1274.24036	631.25726	-65.37713	1237.09680	529.60114	-46.19900	1402.59448	663.42432	-30.52419	1423.69019	664.93054	-109.40401	758.93719	564.29022	-859.65631	791.87427	446.57419	-846.15942	699.22540	111.07743	-807.30475	622.16339	73.65388	-753.80927	814.40076	41.64783	-849.44586	862.09491	68.66657	-793.60413	1060.95459	807.78662	-448.86099	1295.64294	579.39099	-143.22536	788.23517	567.12939	-736.57629	729.41412	121.88481	-717.47894	1157.23254	801.99652	-235.21718	1029.89014	830.83624	-284.86053	1086.75671	766.66486	-206.35995	704.18268	465.57062	-868.09247	690.66052	344.68713	-853.75854	858.99817	1102.55701	-555.94312	935.33411	1044.53918	-494.16293	921.53717	1009.14313	-450.89398	776.81171	1044.70398	-501.52982	862.13025	978.73224	-450.41141	812.47449	835.06329	-914.36145	829.15845	699.13220	-895.97076	696.93701	821.09576	-913.96204	717.44470	691.00989	-884.75775	824.08801	1172.45203	-666.80920	630.35870	1150.08533	-738.40656	808.16559	1090.82410	-910.22089	628.55884	1127.89294	-815.52466	709.36206	1629.93188	-830.51569	750.69171	1604.86475	-667.38550	755.08142	1577.76636	-1010.88434	838.95569	1541.87134	-828.20300	770.42638	1077.39834	-641.20345	754.33949	1003.52085	-865.14884	764.16606	1072.36528	-674.29505	760.35928	1025.42745	-837.40303
148	2.94000	1024.49390	898.23352	-364.02744	1090.38745	863.96344	-311.88815	1271.79858	628.76044	-64.98471	1234.37598	527.13043	-45.96647	1399.83105	660.67548	-29.62566	1421.46436	662.34515	-108.55044	759.31433	564.24139	-859.50104	792.37250	446.64328	-845.88605	699.22363	111.11391	-807.32458	622.16754	73.67658	-753.84668	814.41180	41.66391	-849.41217	862.11609	68.62775	-793.56317	1060.38513	807.07501	-448.92389	1293.22693	576.91669	-142.80057	788.08118	567.07697	-736.18091	729.40747	121.89652	-717.46033	1155.92407	800.27649	-234.97841	1028.88428	829.57874	-284.80249	1085.27795	765.22076	-206.20795	704.92310	465.62747	-868.04974	691.32300	344.62241	-853.88574	859.04938	1102.11035	-555.74548	935.29199	1043.77197	-493.91003	921.29755	1008.37170	-450.60016	776.76007	1044.35181	-501.45523	861.91333	978.26605	-450.17773	812.97400	834.70288	-914.23859	829.42499	698.72217	-895.55664	697.45410	820.92877	-913.96887	717.98621	690.89996	-884.65857	824.58905	1172.30347	-666.46826	630.97540	1150.30688	-738.80676	809.07605	1090.67578	-910.04022	629.30225	1128.05920	-815.82104	710.64642	1630.04309	-830.75684	751.84998	1605.00549	-667.68646	756.23914	1577.72192	-1011.13287	840.03546	1541.75488	-828.40582	770.60369	1077.33970	-641.10800	755.00507	1003.47412	-865.09186	764.43320	1072.46074	-674.04498	760.88883	1025.33165	-837.19069
